<svg width="197" height="197" viewBox="0 0 197 197" fill="none" xmlns="http://www.w3.org/2000/svg">
<rect x="0.5" y="0.5" width="196" height="196" rx="49.5" fill="url(#paint0_linear_8_8)"/>
<rect x="0.5" y="0.5" width="196" height="196" rx="49.5" stroke="white"/>
<path d="M18.5 140.5C66.8819 137.117 134.5 85 166.5 45" stroke="white" stroke-width="3"/>
<path d="M123.018 51.9433C124.7 53.5142 125.869 55.1753 126.527 56.9268C127.184 58.6782 127.351 60.3936 127.026 62.073C126.701 63.7523 125.904 65.2719 124.633 66.6316C123.363 67.9914 121.901 68.8903 120.248 69.3285C118.594 69.7666 116.872 69.7172 115.08 69.1802C113.287 68.6432 111.551 67.5892 109.869 66.0184C108.188 64.4475 107.018 62.7863 106.361 61.0349C105.703 59.2834 105.537 57.568 105.861 55.8887C106.186 54.2094 106.984 52.6898 108.254 51.3301C109.524 49.9703 110.986 49.0713 112.639 48.6332C114.293 48.195 116.016 48.2445 117.808 48.7815C119.6 49.3185 121.336 50.3724 123.018 51.9433ZM121.273 53.8117C119.892 52.522 118.511 51.6645 117.13 51.2391C115.753 50.8086 114.455 50.7573 113.235 51.0852C112.02 51.4079 110.962 52.052 110.06 53.0173C109.158 53.9826 108.585 55.085 108.341 56.3244C108.101 57.5587 108.241 58.8504 108.759 60.1995C109.282 61.5435 110.234 62.8603 111.615 64.15C112.995 65.4397 114.374 66.2998 115.75 66.7303C117.131 67.1557 118.429 67.207 119.645 66.8843C120.864 66.5563 121.925 65.9097 122.827 64.9444C123.729 63.979 124.3 62.8793 124.539 61.645C124.783 60.4056 124.644 59.1139 124.121 57.7699C123.602 56.4208 122.653 55.1013 121.273 53.8117Z" fill="white"/>
<path d="M120.924 37.9697L131.397 40.0556L131.513 39.931L128.721 29.6244L130.844 27.3512L134.132 39.8118L146.788 42.2455L144.664 44.5186L134.316 42.5492L134.2 42.6737L136.868 52.864L134.744 55.1372L131.572 42.5521L118.801 40.2429L120.924 37.9697Z" fill="white"/>
<path d="M98.4601 62.1489L113.514 77.9413L111.664 79.7054L91.2382 75.5094L91.084 75.6564L102.904 88.0559L100.992 89.8789L85.9373 74.0865L87.7879 72.3223L108.274 76.5198L108.428 76.3728L96.5786 63.9424L98.4601 62.1489Z" fill="white"/>
<path d="M80.1207 78.6565L93.3247 96.0256L91.2214 97.6245L78.0174 80.2554L80.1207 78.6565Z" fill="white"/>
<path d="M69.8501 86.3318L72.1163 84.9736L79.5424 97.3648C80.3091 98.6441 80.6921 99.9671 80.6914 101.334C80.6932 102.691 80.3222 103.985 79.5786 105.217C78.8313 106.444 77.7236 107.497 76.2554 108.377C74.7872 109.256 73.3363 109.737 71.9027 109.818C70.4653 109.892 69.1457 109.611 67.9439 108.973C66.7444 108.326 65.7614 107.363 64.9947 106.083L57.5686 93.6922L59.8348 92.334L67.1514 104.542C67.699 105.456 68.3875 106.149 69.2167 106.621C70.0423 107.087 70.949 107.301 71.9368 107.263C72.9271 107.216 73.9431 106.881 74.9849 106.257C76.0266 105.632 76.8016 104.894 77.31 104.043C77.8147 103.186 78.0533 102.285 78.0257 101.341C78.0007 100.388 77.7143 99.454 77.1666 98.5402L69.8501 86.3318Z" fill="white"/>
<path d="M48.4293 111.64L51.0447 110.392L54.6131 112.231L55.557 112.725L60.8995 115.511L58.2841 116.759L54.7542 114.902L53.8671 114.428L48.4293 111.64ZM56.1294 103.434C57.1202 105.511 57.6014 107.485 57.5731 109.355C57.5448 111.226 57.0725 112.883 56.1563 114.328C55.24 115.772 53.9421 116.895 52.2627 117.696C50.5832 118.497 48.8939 118.799 47.1948 118.603C45.4957 118.406 43.9103 117.73 42.4386 116.575C40.9669 115.42 39.7357 113.804 38.7449 111.727C37.7541 109.65 37.2728 107.677 37.3011 105.806C37.3294 103.935 37.8017 102.278 38.718 100.834C39.6342 99.3892 40.9321 98.2664 42.6116 97.4652C44.2911 96.664 45.9804 96.3618 47.6795 96.5584C49.3786 96.7551 50.964 97.431 52.4357 98.586C53.9073 99.741 55.1386 101.357 56.1294 103.434ZM53.8217 104.535C53.0083 102.83 52.0365 101.527 50.9064 100.626C49.7826 99.7218 48.5931 99.1994 47.3377 99.0586C46.0887 98.9147 44.8681 99.1272 43.6758 99.696C42.4835 100.265 41.5471 101.081 40.8666 102.146C40.1925 103.207 39.85 104.46 39.8391 105.905C39.8346 107.348 40.2391 108.921 41.0526 110.626C41.866 112.331 42.8346 113.636 43.9583 114.54C45.0884 115.441 46.278 115.963 47.5269 116.107C48.7823 116.248 50.0062 116.034 51.1985 115.465C52.3908 114.896 53.324 114.081 53.9981 113.02C54.6785 111.956 55.021 110.702 55.0255 109.26C55.0364 107.815 54.6351 106.24 53.8217 104.535Z" fill="white"/>
<path d="M22.5182 127.134L17.3302 105.941L30.1202 102.81L30.6775 105.087L20.4538 107.589L22.2068 114.75L31.7682 112.41L32.3255 114.686L22.7641 117.027L24.5272 124.229L34.9164 121.686L35.4737 123.962L22.5182 127.134Z" fill="white"/>
<rect x="19.3536" y="153" width="11" height="13" fill="#D9D9D9"/>
<rect x="43" y="148" width="11" height="18" fill="#D9D9D9"/>
<rect x="67" y="140" width="11" height="26" fill="#D9D9D9"/>
<rect x="91" y="127" width="11" height="39" fill="#D9D9D9"/>
<rect x="115" y="111" width="11" height="55" fill="#D9D9D9"/>
<rect x="139" y="91" width="11" height="75" fill="#D9D9D9"/>
<rect x="163" y="71" width="11" height="95" fill="#D9D9D9"/>
<path d="M176.234 35.7655C176.187 34.9384 175.478 34.306 174.651 34.353L161.173 35.1184C160.346 35.1653 159.713 35.8739 159.76 36.701C159.807 37.5281 160.516 38.1605 161.343 38.1136L173.324 37.4332L174.004 49.4139C174.051 50.241 174.76 50.8734 175.587 50.8264C176.414 50.7795 177.046 50.0709 176.999 49.2438L176.234 35.7655ZM163 49L164.119 49.9988L175.855 36.8494L174.736 35.8506L173.617 34.8517L161.881 48.0012L163 49Z" fill="white"/>
<defs>
<linearGradient id="paint0_linear_8_8" x1="98.5" y1="0" x2="98.5" y2="197" gradientUnits="userSpaceOnUse">
<stop/>
<stop offset="1" stop-color="#404042"/>
</linearGradient>
</defs>
</svg>
